<?xml version="1.0" encoding="UTF-8"?><!DOCTYPE svg PUBLIC "-//W3C//DTD SVG 1.1//EN" "http://www.w3.org/Graphics/SVG/1.1/DTD/svg11.dtd"><svg xmlns="http://www.w3.org/2000/svg" xmlns:xlink="http://www.w3.org/1999/xlink"><defs><linearGradient id="b"><stop offset="0" stop-color="#3771c8"/><stop stop-color="#3771c8" offset=".128"/><stop offset="1" stop-color="#60f" stop-opacity="0"/></linearGradient><linearGradient id="a"><stop offset="0" stop-color="#fd5"/><stop offset=".1" stop-color="#fd5"/><stop offset=".5" stop-color="#ff543e"/><stop offset="1" stop-color="#c837ab"/></linearGradient><radialGradient id="c" cx="158.429" cy="578.088" r="65" xlink:href="#a" gradientUnits="userSpaceOnUse" gradientTransform="matrix(0 -1.98198 1.8439 0 -1031.402 454.004)" fx="158.429" fy="578.088"/><radialGradient id="d" cx="147.694" cy="473.455" r="65" xlink:href="#b" gradientUnits="userSpaceOnUse" gradientTransform="matrix(.17394 .86872 -3.5818 .71718 1648.348 -458.493)" fx="147.694" fy="473.455"/><style>.cls-1,.cls-2{fill-rule:evenodd;}.cls-1{fill:url(#linear-gradient);}.cls-2{fill:#fff;}</style><linearGradient id="linear-gradient" x1="1337.28" y1="518.24" x2="1337.28" y2="-2164.82" gradientTransform="matrix(0.19, 0, 0, -0.19, 0.81, 98.89)" gradientUnits="userSpaceOnUse"><stop offset="0" stop-color="#61fd7d"/><stop offset="1" stop-color="#2bb826"/></linearGradient></defs><symbol id="account-circle" viewBox="0 -960 960 960"><path d="M234-276q51-39 114-61.5T480-360q69 0 132 22.5T726-276q35-41 54.5-93T800-480q0-133-93.5-226.5T480-800q-133 0-226.5 93.5T160-480q0 59 19.5 111t54.5 93Zm246-164q-59 0-99.5-40.5T340-580q0-59 40.5-99.5T480-720q59 0 99.5 40.5T620-580q0 59-40.5 99.5T480-440Zm0 360q-83 0-156-31.5T197-197q-54-54-85.5-127T80-480q0-83 31.5-156T197-763q54-54 127-85.5T480-880q83 0 156 31.5T763-763q54 54 85.5 127T880-480q0 83-31.5 156T763-197q-54 54-127 85.5T480-80Zm0-80q53 0 100-15.5t86-44.5q-39-29-86-44.5T480-280q-53 0-100 15.5T294-220q39 29 86 44.5T480-160Zm0-360q26 0 43-17t17-43q0-26-17-43t-43-17q-26 0-43 17t-17 43q0 26 17 43t43 17Zm0-60Zm0 360Z"/></symbol><symbol id="add" viewBox="0 -960 960 960"><path d="M446.67-446.67H200v-66.66h246.67V-760h66.66v246.67H760v66.66H513.33V-200h-66.66v-246.67Z"/></symbol><symbol id="arrow-back" viewBox="0 -960 960 960"><path d="m313-440 224 224-57 56-320-320 320-320 57 56-224 224h487v80H313Z"/></symbol><symbol id="arrow-downward" viewBox="0 -960 960 960"><path d="M440-800v487L216-537l-56 57 320 320 320-320-56-57-224 224v-487h-80Z"/></symbol><symbol id="arrow-forward" viewBox="0 -960 960 960"><path d="M647-440H160v-80h487L423-744l57-56 320 320-320 320-57-56 224-224Z"/></symbol><symbol id="arrow-upward" viewBox="0 -960 960 960"><path d="M440-160v-487L216-423l-56-57 320-320 320 320-56 57-224-224v487h-80Z"/></symbol><symbol id="attach-file" viewBox="0 -960 960 960"><path d="M720-330q0 104-73 177T470-80q-104 0-177-73t-73-177v-370q0-75 52.5-127.5T400-880q75 0 127.5 52.5T580-700v350q0 46-32 78t-78 32q-46 0-78-32t-32-78v-370h80v370q0 13 8.5 21.5T470-320q13 0 21.5-8.5T500-350v-350q-1-42-29.5-71T400-800q-42 0-71 29t-29 71v370q-1 71 49 120.5T470-160q70 0 119-49.5T640-330v-390h80v390Z"/></symbol><symbol id="attachment" viewBox="0 -960 960 960"><path d="M330-240q-104 0-177-73T80-490q0-104 73-177t177-73h370q75 0 127.5 52.5T880-560q0 75-52.5 127.5T700-380H350q-46 0-78-32t-32-78q0-46 32-78t78-32h370v80H350q-13 0-21.5 8.5T320-490q0 13 8.5 21.5T350-460h350q42-1 71-29.5t29-70.5q0-42-29-71t-71-29H330q-71-1-120.5 49T160-490q0 70 49.5 119T330-320h390v80H330Z"/></symbol><symbol id="cached" viewBox="0 -960 960 960"><path d="M481.33-158.67q-132 0-226.33-94-94.33-94-94.33-226V-511L86-436.33 41.33-481 194-633.67 346.67-481 302-436.33 227.33-511v32.33q0 104.67 74.5 179 74.5 74.34 179.5 74.34 28 0 53.67-5.34 25.67-5.33 49-16L632.67-198q-36.67 20.67-74.34 30-37.66 9.33-77 9.33ZM766.67-325 614-477.67 659.33-523l74 74v-29.67q0-104.66-74.5-179Q584.33-732 479.33-732q-28 0-53.66 5.67-25.67 5.66-49 15L328-760q36.67-20.67 74.33-29.67 37.67-9 77-9 132 0 226.34 94 94.33 94 94.33 226v31l74.67-74.66 44.66 44.66L766.67-325Z"/></symbol><symbol id="calculator" viewBox="0 0 24 24"><path d="M4 2H20C20.5523 2 21 2.44772 21 3V21C21 21.5523 20.5523 22 20 22H4C3.44772 22 3 21.5523 3 21V3C3 2.44772 3.44772 2 4 2ZM5 4V20H19V4H5ZM7 6H17V10H7V6ZM7 12H9V14H7V12ZM7 16H9V18H7V16ZM11 12H13V14H11V12ZM11 16H13V18H11V16ZM15 12H17V18H15V12Z"/></symbol><symbol id="check-circle" viewBox="0 -960 960 960"><path d="m424-296 282-282-56-56-226 226-114-114-56 56 170 170Zm56 216q-83 0-156-31.5T197-197q-54-54-85.5-127T80-480q0-83 31.5-156T197-763q54-54 127-85.5T480-880q83 0 156 31.5T763-763q54 54 85.5 127T880-480q0 83-31.5 156T763-197q-54 54-127 85.5T480-80Zm0-80q134 0 227-93t93-227q0-134-93-227t-227-93q-134 0-227 93t-93 227q0 134 93 227t227 93Zm0-320Z"/></symbol><symbol id="check" viewBox="0 -960 960 960"><path d="M382-240 154-468l57-57 171 171 367-367 57 57-424 424Z"/></symbol><symbol id="chevron-left" viewBox="0 -960 960 960"><path d="M560-240 320-480l240-240 56 56-184 184 184 184-56 56Z"/></symbol><symbol id="chevron-right" viewBox="0 -960 960 960"><path d="M504-480 320-664l56-56 240 240-240 240-56-56 184-184Z"/></symbol><symbol id="close" viewBox="0 -960 960 960"><path d="m256-200-56-56 224-224-224-224 56-56 224 224 224-224 56 56-224 224 224 224-56 56-224-224-224 224Z"/></symbol><symbol id="computer" viewBox="0 -960 960 960"><path d="M40-120v-80h880v80H40Zm120-120q-33 0-56.5-23.5T80-320v-440q0-33 23.5-56.5T160-840h640q33 0 56.5 23.5T880-760v440q0 33-23.5 56.5T800-240H160Zm0-80h640v-440H160v440Zm0 0v-440 440Z"/></symbol><symbol id="cycle" viewBox="0 -960 960 960"><path d="M314-115q-104-48-169-145T80-479q0-26 2.5-51t8.5-49l-46 27-40-69 191-110 110 190-70 40-54-94q-11 27-16.5 56t-5.5 60q0 97 53 176.5T354-185l-40 70Zm306-485v-80h109q-46-57-111-88.5T480-800q-55 0-104 17t-90 48l-40-70q50-35 109-55t125-20q79 0 151 29.5T760-765v-55h80v220H620ZM594 0 403-110l110-190 69 40-57 98q118-17 196.5-107T800-480q0-11-.5-20.5T797-520h81q1 10 1.5 19.5t.5 20.5q0 135-80.5 241.5T590-95l44 26-40 69Z"/></symbol><symbol id="dark-mode" viewBox="0 -960 960 960"><path d="M480-120q-150 0-255-105T120-480q0-150 105-255t255-105q10 0 20.5.67 10.5.66 24.17 2-37.67 31-59.17 77.83T444-660q0 90 63 153t153 63q53 0 99.67-20.5 46.66-20.5 77.66-56.17 1.34 12.34 2 21.84.67 9.5.67 18.83 0 150-105 255T480-120Zm0-66.67q102 0 179.33-61.16Q736.67-309 760.67-395.67q-23.34 9-49.11 13.67-25.78 4.67-51.56 4.67-117.46 0-200.06-82.61-82.61-82.6-82.61-200.06 0-22.67 4.34-47.67 4.33-25 14.66-55-91.33 28.67-150.5 107-59.16 78.34-59.16 175.67 0 122 85.66 207.67Q358-186.67 480-186.67Zm-6-288Z"/></symbol><symbol id="dashboard" viewBox="0 -960 960 960"><path d="M513.33-580v-260H840v260H513.33ZM120-446.67V-840h326.67v393.33H120ZM513.33-120v-393.33H840V-120H513.33ZM120-120v-260h326.67v260H120Zm66.67-393.33H380v-260H186.67v260ZM580-186.67h193.33v-260H580v260Zm0-460h193.33v-126.66H580v126.66Zm-393.33 460H380v-126.66H186.67v126.66ZM380-513.33Zm200-133.34Zm0 200ZM380-313.33Z"/></symbol><symbol id="dataset" viewBox="0 -960 960 960"><path d="M280-280h160v-160H280v160Zm240 0h160v-160H520v160ZM280-520h160v-160H280v160Zm240 0h160v-160H520v160ZM200-120q-33 0-56.5-23.5T120-200v-560q0-33 23.5-56.5T200-840h560q33 0 56.5 23.5T840-760v560q0 33-23.5 56.5T760-120H200Zm0-80h560v-560H200v560Zm0-560v560-560Z"/></symbol><symbol id="delete" viewBox="0 -960 960 960"><path d="M280-120q-33 0-56.5-23.5T200-200v-520h-40v-80h200v-40h240v40h200v80h-40v520q0 33-23.5 56.5T680-120H280Zm400-600H280v520h400v-520ZM360-280h80v-360h-80v360Zm160 0h80v-360h-80v360ZM280-720v520-520Z"/></symbol><symbol id="download" viewBox="0 -960 960 960"><path d="M480-320 280-520l56-58 104 104v-326h80v326l104-104 56 58-200 200ZM240-160q-33 0-56.5-23.5T160-240v-120h80v120h480v-120h80v120q0 33-23.5 56.5T720-160H240Z"/></symbol><symbol id="edit" viewBox="0 -960 960 960"><path d="M200-200h57l391-391-57-57-391 391v57Zm-80 80v-170l528-527q12-11 26.5-17t30.5-6q16 0 31 6t26 18l55 56q12 11 17.5 26t5.5 30q0 16-5.5 30.5T817-647L290-120H120Zm640-584-56-56 56 56Zm-141 85-28-29 57 57-29-28Z"/></symbol><symbol id="facebook" viewBox="0 0 512 509.64"><rect fill="#0866FF" width="512" height="509.64" rx="115.612" ry="115.612"/><path fill="#fff" d="M287.015 509.64h-92.858V332.805h-52.79v-78.229h52.79v-33.709c0-87.134 39.432-127.522 124.977-127.522 16.217 0 44.203 3.181 55.651 6.361v70.915c-6.043-.636-16.536-.953-29.576-.953-41.976 0-58.194 15.9-58.194 57.241v27.667h83.618l-14.365 78.229h-69.253V509.64z"/></symbol><symbol id="favorite" viewBox="0 -960 960 960"><path d="m480-120.67-46.67-42q-104.18-95.08-172.25-164.04Q193-395.67 152.67-450.17q-40.34-54.5-56.5-99.16Q80-594 80-640q0-91.44 61.33-152.72 61.34-61.28 152-61.28 55.34 0 103.34 25.33 48 25.34 83.33 72.67 39.33-49.33 86.33-73.67 47-24.33 100.34-24.33 90.66 0 152 61.28Q880-731.44 880-640q0 46-16.17 90.67-16.16 44.66-56.5 99.16-40.33 54.5-108.41 123.46-68.07 68.96-172.25 164.04l-46.67 42Zm0-88.66q99.49-90.67 163.75-155.5Q708-429.67 745.67-478.17q37.66-48.5 52.66-86.42t15-75.31q0-64.1-41.33-105.77-41.33-41.66-105.18-41.66-50.02 0-92.59 29.83-42.56 29.83-65.56 81.5h-58q-22.34-51-64.9-81.17-42.57-30.16-92.59-30.16-63.85 0-105.18 41.66-41.33 41.67-41.33 105.88 0 37.46 15 75.62 15 38.17 52.66 87Q252-428.33 316.67-363.83q64.66 64.5 163.33 154.5Zm0-289Z"/></symbol><symbol id="filter-alt-off" viewBox="0 -960 960 960"><path d="m592-481-57-57 143-182H353l-80-80h487q25 0 36 22t-4 42L592-481ZM791-56 560-287v87q0 17-11.5 28.5T520-160h-80q-17 0-28.5-11.5T400-200v-247L56-791l56-57 736 736-57 56ZM535-538Z"/></symbol><symbol id="filter-alt" viewBox="0 -960 960 960"><path d="M440-160q-17 0-28.5-11.5T400-200v-240L168-736q-15-20-4.5-42t36.5-22h560q26 0 36.5 22t-4.5 42L560-440v240q0 17-11.5 28.5T520-160h-80Zm40-308 198-252H282l198 252Zm0 0Z"/></symbol><symbol id="grid-view" viewBox="0 -960 960 960"><path d="M120-520v-320h320v320H120Zm0 400v-320h320v320H120Zm400-400v-320h320v320H520Zm0 400v-320h320v320H520ZM200-600h160v-160H200v160Zm400 0h160v-160H600v160Zm0 400h160v-160H600v160Zm-400 0h160v-160H200v160Zm400-400Zm0 240Zm-240 0Zm0-240Z"/></symbol><symbol id="group-search" viewBox="0 -960 960 960"><path d="M358.67-226.67ZM38.67-160v-100q0-34.67 17.83-63.17T105.33-366q69.34-31.67 129.67-46.17 60.33-14.5 123.67-14.5 38.66 0 75.16 5.17t75.84 17.17q-10.29 13.64-17.82 28.48Q484.33-361 479-345q-31-9-59.83-12-28.84-3-60.5-3-56.67 0-108 11.83-51.34 11.84-117.34 42.17-12.33 5.67-20.16 18.67-7.84 13-7.84 27.33v33.33h366.34q3.85 18.22 10.59 34.78Q489-175.33 498-160H38.67Zm320-320.67q-66 0-109.67-43.66Q205.33-568 205.33-634T249-743.67q43.67-43.66 109.67-43.66t109.66 43.66Q512-700 512-634t-43.67 109.67q-43.66 43.66-109.66 43.66ZM732-634q0 66-43.67 109.67-43.66 43.66-109.66 43.66-11 0-25.67-1.83-14.67-1.83-25.67-5.5 25-27.33 38.17-64.67Q578.67-590 578.67-634t-13.17-80q-13.17-36-38.17-66 12-3.67 25.67-5.5 13.67-1.83 25.67-1.83 66 0 109.66 43.66Q732-700 732-634Zm-373.33 86.67q37 0 61.83-24.84Q445.33-597 445.33-634t-24.83-61.83q-24.83-24.84-61.83-24.84t-61.84 24.84Q272-671 272-634t24.83 61.83q24.84 24.84 61.84 24.84Zm0-86.67Zm327.88 447.33q36.78 0 61.62-24 24.83-24 25.16-62.66.34-36.67-24.93-61.67-25.28-25-61.84-25T625-335.12q-25 24.89-25 61.67t24.88 61.78q24.89 25 61.67 25Zm.12 66.67q-63.25 0-108.29-45.04-45.05-45.04-45.05-108.29 0-64 45.05-108.67 45.04-44.67 108.29-44.67 64 0 108.66 44.67Q840-337.33 840-273.33q0 23.24-6.17 43.95-6.16 20.71-17.83 38.71L917.33-89.33l-44 44L772-146q-18.61 13-39.8 19.5-21.2 6.5-45.53 6.5Z"/></symbol><symbol id="group" viewBox="0 -960 960 960"><path d="M40-160v-112q0-34 17.5-62.5T104-378q62-31 126-46.5T360-440q66 0 130 15.5T616-378q29 15 46.5 43.5T680-272v112H40Zm720 0v-120q0-44-24.5-84.5T666-434q51 6 96 20.5t84 35.5q36 20 55 44.5t19 53.5v120H760ZM360-480q-66 0-113-47t-47-113q0-66 47-113t113-47q66 0 113 47t47 113q0 66-47 113t-113 47Zm400-160q0 66-47 113t-113 47q-11 0-28-2.5t-28-5.5q27-32 41.5-71t14.5-81q0-42-14.5-81T544-792q14-5 28-6.5t28-1.5q66 0 113 47t47 113ZM120-240h480v-32q0-11-5.5-20T580-306q-54-27-109-40.5T360-360q-56 0-111 13.5T140-306q-9 5-14.5 14t-5.5 20v32Zm240-320q33 0 56.5-23.5T440-640q0-33-23.5-56.5T360-720q-33 0-56.5 23.5T280-640q0 33 23.5 56.5T360-560Zm0 320Zm0-400Z"/></symbol><symbol id="home" viewBox="0 -960 960 960"><path d="M240-200h120v-240h240v240h120v-360L480-740 240-560v360Zm-80 80v-480l320-240 320 240v480H520v-240h-80v240H160Zm320-350Z"/></symbol><symbol id="instagram" viewBox="0 0 132.004 132"><path fill="url(#c)" d="M65.03 0C37.888 0 29.95.028 28.407.156c-5.57.463-9.036 1.34-12.812 3.22-2.91 1.445-5.205 3.12-7.47 5.468C4 13.126 1.5 18.394.595 24.656c-.44 3.04-.568 3.66-.594 19.188-.01 5.176 0 11.988 0 21.125 0 27.12.03 35.05.16 36.59.45 5.42 1.3 8.83 3.1 12.56 3.44 7.14 10.01 12.5 17.75 14.5 2.68.69 5.64 1.07 9.44 1.25 1.61.07 18.02.12 34.44.12 16.42 0 32.84-.02 34.41-.1 4.4-.207 6.955-.55 9.78-1.28 7.79-2.01 14.24-7.29 17.75-14.53 1.765-3.64 2.66-7.18 3.065-12.317.088-1.12.125-18.977.125-36.81 0-17.836-.04-35.66-.128-36.78-.41-5.22-1.305-8.73-3.127-12.44-1.495-3.037-3.155-5.305-5.565-7.624C116.9 4 111.64 1.5 105.372.596 102.335.157 101.73.027 86.19 0H65.03z" transform="translate(1.004 1)"/><path fill="url(#d)" d="M65.03 0C37.888 0 29.95.028 28.407.156c-5.57.463-9.036 1.34-12.812 3.22-2.91 1.445-5.205 3.12-7.47 5.468C4 13.126 1.5 18.394.595 24.656c-.44 3.04-.568 3.66-.594 19.188-.01 5.176 0 11.988 0 21.125 0 27.12.03 35.05.16 36.59.45 5.42 1.3 8.83 3.1 12.56 3.44 7.14 10.01 12.5 17.75 14.5 2.68.69 5.64 1.07 9.44 1.25 1.61.07 18.02.12 34.44.12 16.42 0 32.84-.02 34.41-.1 4.4-.207 6.955-.55 9.78-1.28 7.79-2.01 14.24-7.29 17.75-14.53 1.765-3.64 2.66-7.18 3.065-12.317.088-1.12.125-18.977.125-36.81 0-17.836-.04-35.66-.128-36.78-.41-5.22-1.305-8.73-3.127-12.44-1.495-3.037-3.155-5.305-5.565-7.624C116.9 4 111.64 1.5 105.372.596 102.335.157 101.73.027 86.19 0H65.03z" transform="translate(1.004 1)"/><path fill="#fff" d="M66.004 18c-13.036 0-14.672.057-19.792.29-5.11.234-8.598 1.043-11.65 2.23-3.157 1.226-5.835 2.866-8.503 5.535-2.67 2.668-4.31 5.346-5.54 8.502-1.19 3.053-2 6.542-2.23 11.65C18.06 51.327 18 52.964 18 66s.058 14.667.29 19.787c.235 5.11 1.044 8.598 2.23 11.65 1.227 3.157 2.867 5.835 5.536 8.503 2.667 2.67 5.345 4.314 8.5 5.54 3.054 1.187 6.543 1.996 11.652 2.23 5.12.233 6.755.29 19.79.29 13.037 0 14.668-.057 19.788-.29 5.11-.234 8.602-1.043 11.656-2.23 3.156-1.226 5.83-2.87 8.497-5.54 2.67-2.668 4.31-5.346 5.54-8.502 1.18-3.053 1.99-6.542 2.23-11.65.23-5.12.29-6.752.29-19.788 0-13.036-.06-14.672-.29-19.792-.24-5.11-1.05-8.598-2.23-11.65-1.23-3.157-2.87-5.835-5.54-8.503-2.67-2.67-5.34-4.31-8.5-5.535-3.06-1.187-6.55-1.996-11.66-2.23-5.12-.233-6.75-.29-19.79-.29zm-4.306 8.65c1.278-.002 2.704 0 4.306 0 12.816 0 14.335.046 19.396.276 4.68.214 7.22.996 8.912 1.653 2.24.87 3.837 1.91 5.516 3.59 1.68 1.68 2.72 3.28 3.592 5.52.657 1.69 1.44 4.23 1.653 8.91.23 5.06.28 6.58.28 19.39s-.05 14.33-.28 19.39c-.214 4.68-.996 7.22-1.653 8.91-.87 2.24-1.912 3.835-3.592 5.514-1.68 1.68-3.275 2.72-5.516 3.59-1.69.66-4.232 1.44-8.912 1.654-5.06.23-6.58.28-19.396.28-12.817 0-14.336-.05-19.396-.28-4.68-.216-7.22-.998-8.913-1.655-2.24-.87-3.84-1.91-5.52-3.59-1.68-1.68-2.72-3.276-3.592-5.517-.657-1.69-1.44-4.23-1.653-8.91-.23-5.06-.276-6.58-.276-19.398s.046-14.33.276-19.39c.214-4.68.996-7.22 1.653-8.912.87-2.24 1.912-3.84 3.592-5.52 1.68-1.68 3.28-2.72 5.52-3.592 1.692-.66 4.233-1.44 8.913-1.655 4.428-.2 6.144-.26 15.09-.27zm29.928 7.97c-3.18 0-5.76 2.577-5.76 5.758 0 3.18 2.58 5.76 5.76 5.76 3.18 0 5.76-2.58 5.76-5.76 0-3.18-2.58-5.76-5.76-5.76zm-25.622 6.73c-13.613 0-24.65 11.037-24.65 24.65 0 13.613 11.037 24.645 24.65 24.645C79.617 90.645 90.65 79.613 90.65 66S79.616 41.35 66.003 41.35zm0 8.65c8.836 0 16 7.163 16 16 0 8.836-7.164 16-16 16-8.837 0-16-7.164-16-16 0-8.837 7.163-16 16-16z"/></symbol><symbol id="layout-grid" viewBox="0 0 24 24"><path d="M21 3C21.5523 3 22 3.44772 22 4V20C22 20.5523 21.5523 21 21 21H3C2.44772 21 2 20.5523 2 20V4C2 3.44772 2.44772 3 3 3H21ZM11 13H4V19H11V13ZM20 13H13V19H20V13ZM11 5H4V11H11V5ZM20 5H13V11H20V5Z"/></symbol><symbol id="light-mode" viewBox="0 -960 960 960"><path d="M480-346.67q55.33 0 94.33-39t39-94.33q0-55.33-39-94.33t-94.33-39q-55.33 0-94.33 39t-39 94.33q0 55.33 39 94.33t94.33 39Zm0 66.67q-83 0-141.5-58.5T280-480q0-83 58.5-141.5T480-680q83 0 141.5 58.5T680-480q0 83-58.5 141.5T480-280ZM200-446.67H40v-66.66h160v66.66Zm720 0H760v-66.66h160v66.66ZM446.67-760v-160h66.66v160h-66.66Zm0 720v-160h66.66v160h-66.66ZM260-655.33l-100.33-97 47.66-49 96 100-43.33 46Zm493.33 496-97.66-100.34 45-45.66 99.66 97.66-47 48.34Zm-98.66-541.34 97.66-99.66 49 47L702-656l-47.33-44.67ZM159.33-207.33 259-305l46.33 45.67-97.66 99.66-48.34-47.66ZM480-480Z"/></symbol><symbol id="lock-open" viewBox="0 -960 960 960"><path d="M240-640h360v-80q0-50-35-85t-85-35q-50 0-85 35t-35 85h-80q0-83 58.5-141.5T480-920q83 0 141.5 58.5T680-720v80h40q33 0 56.5 23.5T800-560v400q0 33-23.5 56.5T720-80H240q-33 0-56.5-23.5T160-160v-400q0-33 23.5-56.5T240-640Zm0 480h480v-400H240v400Zm240-120q33 0 56.5-23.5T560-360q0-33-23.5-56.5T480-440q-33 0-56.5 23.5T400-360q0 33 23.5 56.5T480-280ZM240-160v-400 400Z"/></symbol><symbol id="lock" viewBox="0 -960 960 960"><path d="M240-80q-33 0-56.5-23.5T160-160v-400q0-33 23.5-56.5T240-640h40v-80q0-83 58.5-141.5T480-920q83 0 141.5 58.5T680-720v80h40q33 0 56.5 23.5T800-560v400q0 33-23.5 56.5T720-80H240Zm0-80h480v-400H240v400Zm240-120q33 0 56.5-23.5T560-360q0-33-23.5-56.5T480-440q-33 0-56.5 23.5T400-360q0 33 23.5 56.5T480-280ZM360-640h240v-80q0-50-35-85t-85-35q-50 0-85 35t-35 85v80ZM240-160v-400 400Z"/></symbol><symbol id="login" viewBox="0 -960 960 960"><path d="M480-120v-80h280v-560H480v-80h280q33 0 56.5 23.5T840-760v560q0 33-23.5 56.5T760-120H480Zm-80-160-55-58 102-102H120v-80h327L345-622l55-58 200 200-200 200Z"/></symbol><symbol id="logout" viewBox="0 -960 960 960"><path d="M200-120q-33 0-56.5-23.5T120-200v-560q0-33 23.5-56.5T200-840h280v80H200v560h280v80H200Zm440-160-55-58 102-102H360v-80h327L585-622l55-58 200 200-200 200Z"/></symbol><symbol id="mail" viewBox="0 -960 960 960"><path d="M146.67-160q-27 0-46.84-19.83Q80-199.67 80-226.67v-506.66q0-27 19.83-46.84Q119.67-800 146.67-800h666.66q27 0 46.84 19.83Q880-760.33 880-733.33v506.66q0 27-19.83 46.84Q840.33-160 813.33-160H146.67ZM480-454.67 146.67-670v443.33h666.66V-670L480-454.67Zm0-66.66 330.67-212H150l330 212ZM146.67-670v-63.33V-226.67-670Z"/></symbol><symbol id="menu" viewBox="0 -960 960 960"><path d="M120-240v-80h720v80H120Zm0-200v-80h720v80H120Zm0-200v-80h720v80H120Z"/></symbol><symbol id="news" viewBox="0 -960 960 960"><path d="M200-120q-33 0-56.5-23.5T120-200v-560q0-33 23.5-56.5T200-840h440l200 200v440q0 33-23.5 56.5T760-120H200Zm0-80h560v-400H600v-160H200v560Zm80-80h400v-80H280v80Zm0-320h200v-80H280v80Zm0 160h400v-80H280v80Zm-80-320v160-160 560-560Z"/></symbol><symbol id="person-add" viewBox="0 -960 960 960"><path d="M726.67-400v-126.67H600v-66.66h126.67V-720h66.66v126.67H920v66.66H793.33V-400h-66.66ZM360-480.67q-66 0-109.67-43.66Q206.67-568 206.67-634t43.66-109.67Q294-787.33 360-787.33t109.67 43.66Q513.33-700 513.33-634t-43.66 109.67Q426-480.67 360-480.67ZM40-160v-100q0-34.67 17.5-63.17T106.67-366q70.66-32.33 130.89-46.5 60.22-14.17 122.33-14.17T482-412.5q60 14.17 130.67 46.5 31.66 15 49.5 43.17Q680-294.67 680-260v100H40Zm66.67-66.67h506.66V-260q0-14.33-7.83-27t-20.83-19q-65.34-31-116.34-42.5T360-360q-57.33 0-108.67 11.5Q200-337 134.67-306q-13 6.33-20.5 19t-7.5 27v33.33ZM360-547.33q37 0 61.83-24.84Q446.67-597 446.67-634t-24.84-61.83Q397-720.67 360-720.67t-61.83 24.84Q273.33-671 273.33-634t24.84 61.83Q323-547.33 360-547.33Zm0-86.67Zm0 407.33Z"/></symbol><symbol id="person-edit" viewBox="0 -960 960 960"><path d="M493.33-226.67ZM160-160v-100q0-36.67 18.5-64.17T226.67-366q65.33-30.33 127.66-45.5 62.34-15.17 125.67-15.17 37.68 0 74.34 5.5 36.66 5.5 73.99 16.17L574-351q-24-4.33-46.93-6.67Q504.14-360 480-360q-56.67 0-111 12.17-54.33 12.16-114.33 41.83-12.34 6.33-20.17 19-7.83 12.67-7.83 27v33.33h266.66V-160H160Zm400 40v-123l221-220q9-9 20-13t22-4q12 0 23 4.5t20 13.5l37 37q8.67 9 12.83 20 4.17 11 4.17 22t-4.33 22.5q-4.34 11.5-13.28 20.5L683-120H560Zm300-263-37-37 37 37ZM620-180h38l121-122-18-19-19-18-122 121v38Zm141-141-19-18 37 37-18-19ZM480-480.67q-64 0-108.67-44.66Q326.67-570 326.67-634t44.66-108.67Q416-787.33 480-787.33t108.67 44.66Q633.33-698 633.33-634t-44.66 108.67Q544-480.67 480-480.67Zm0-66.66q36.33 0 61.5-25.17t25.17-61.5q0-36.33-25.17-61.5T480-720.67q-36.33 0-61.5 25.17T393.33-634q0 36.33 25.17 61.5t61.5 25.17Zm0-86.67Z"/></symbol><symbol id="person-remove" viewBox="0 -960 960 960"><path d="M645.33-534.67v-66.66H880v66.66H645.33Zm-285.33 54q-66 0-109.67-43.66Q206.67-568 206.67-634t43.66-109.67Q294-787.33 360-787.33t109.67 43.66Q513.33-700 513.33-634t-43.66 109.67Q426-480.67 360-480.67ZM40-160v-100q0-34.67 17.5-63.17T106.67-366q70.66-32.33 130.89-46.5 60.22-14.17 122.33-14.17T482-412.5q60 14.17 130.67 46.5 31.66 15 49.5 43.17Q680-294.67 680-260v100H40Zm66.67-66.67h506.66V-260q0-14.33-7.83-27t-20.83-19q-65.34-31-116.34-42.5T360-360q-57.33 0-108.67 11.5Q200-337 134.67-306q-13 6.33-20.5 19t-7.5 27v33.33ZM360-547.33q37 0 61.83-24.84Q446.67-597 446.67-634t-24.84-61.83Q397-720.67 360-720.67t-61.83 24.84Q273.33-671 273.33-634t24.84 61.83Q323-547.33 360-547.33Zm0-86.67Zm0 407.33Z"/></symbol><symbol id="person" viewBox="0 -960 960 960"><path d="M480-480.67q-66 0-109.67-43.66Q326.67-568 326.67-634t43.66-109.67Q414-787.33 480-787.33t109.67 43.66Q633.33-700 633.33-634t-43.66 109.67Q546-480.67 480-480.67ZM160-160v-100q0-36.67 18.5-64.17T226.67-366q65.33-30.33 127.66-45.5 62.34-15.17 125.67-15.17t125.33 15.5q62 15.5 127.28 45.3 30.54 14.42 48.96 41.81Q800-296.67 800-260v100H160Zm66.67-66.67h506.66V-260q0-14.33-8.16-27-8.17-12.67-20.5-19-60.67-29.67-114.34-41.83Q536.67-360 480-360t-111 12.17Q314.67-335.67 254.67-306q-12.34 6.33-20.17 19-7.83 12.67-7.83 27v33.33ZM480-547.33q37 0 61.83-24.84Q566.67-597 566.67-634t-24.84-61.83Q517-720.67 480-720.67t-61.83 24.84Q393.33-671 393.33-634t24.84 61.83Q443-547.33 480-547.33Zm0-86.67Zm0 407.33Z"/></symbol><symbol id="printer" viewBox="0 0 24 24"><path d="M17 2C17.5523 2 18 2.44772 18 3V7H21C21.5523 7 22 7.44772 22 8V18C22 18.5523 21.5523 19 21 19H18V21C18 21.5523 17.5523 22 17 22H7C6.44772 22 6 21.5523 6 21V19H3C2.44772 19 2 18.5523 2 18V8C2 7.44772 2.44772 7 3 7H6V3C6 2.44772 6.44772 2 7 2H17ZM16 17H8V20H16V17ZM20 9H4V17H6V16C6 15.4477 6.44772 15 7 15H17C17.5523 15 18 15.4477 18 16V17H20V9ZM8 10V12H5V10H8ZM16 4H8V7H16V4Z"/></symbol><symbol id="refresh" viewBox="0 -960 960 960"><path d="M480-160q-134 0-227-93t-93-227q0-134 93-227t227-93q69 0 132 28.5T720-690v-110h80v280H520v-80h168q-32-56-87.5-88T480-720q-100 0-170 70t-70 170q0 100 70 170t170 70q77 0 139-44t87-116h84q-28 106-114 173t-196 67Z"/></symbol><symbol id="schedule" viewBox="0 -960 960 960"><path d="m612-292 56-56-148-148v-184h-80v216l172 172ZM480-80q-83 0-156-31.5T197-197q-54-54-85.5-127T80-480q0-83 31.5-156T197-763q54-54 127-85.5T480-880q83 0 156 31.5T763-763q54 54 85.5 127T880-480q0 83-31.5 156T763-197q-54 54-127 85.5T480-80Zm0-400Zm0 320q133 0 226.5-93.5T800-480q0-133-93.5-226.5T480-800q-133 0-226.5 93.5T160-480q0 133 93.5 226.5T480-160Z"/></symbol><symbol id="search" viewBox="0 -960 960 960"><path d="M784-120 532-372q-30 24-69 38t-83 14q-109 0-184.5-75.5T120-580q0-109 75.5-184.5T380-840q109 0 184.5 75.5T640-580q0 44-14 83t-38 69l252 252-56 56ZM380-400q75 0 127.5-52.5T560-580q0-75-52.5-127.5T380-760q-75 0-127.5 52.5T200-580q0 75 52.5 127.5T380-400Z"/></symbol><symbol id="settings" viewBox="0 -960 960 960"><path d="m370-80-16-128q-13-5-24.5-12T307-235l-119 50L78-375l103-78q-1-7-1-13.5v-27q0-6.5 1-13.5L78-585l110-190 119 50q11-8 23-15t24-12l16-128h220l16 128q13 5 24.5 12t22.5 15l119-50 110 190-103 78q1 7 1 13.5v27q0 6.5-2 13.5l103 78-110 190-118-50q-11 8-23 15t-24 12L590-80H370Zm70-80h79l14-106q31-8 57.5-23.5T639-327l99 41 39-68-86-65q5-14 7-29.5t2-31.5q0-16-2-31.5t-7-29.5l86-65-39-68-99 42q-22-23-48.5-38.5T533-694l-13-106h-79l-14 106q-31 8-57.5 23.5T321-633l-99-41-39 68 86 64q-5 15-7 30t-2 32q0 16 2 31t7 30l-86 65 39 68 99-42q22 23 48.5 38.5T427-266l13 106Zm42-180q58 0 99-41t41-99q0-58-41-99t-99-41q-59 0-99.5 41T342-480q0 58 40.5 99t99.5 41Zm-2-140Z"/></symbol><symbol id="share" viewBox="0 0 122.88 122.88"><title>share-square-line</title><path d="M23.15,0H99.73a23.07,23.07,0,0,1,16.34,6.8h0a23.09,23.09,0,0,1,6.8,16.34V99.73a23.07,23.07,0,0,1-6.8,16.34h0a23.09,23.09,0,0,1-16.34,6.8H23.15a23.07,23.07,0,0,1-16.34-6.8h0A23.09,23.09,0,0,1,0,99.73V23.15A23.07,23.07,0,0,1,6.8,6.81h0A23.11,23.11,0,0,1,23.15,0ZM66.29,77,50.65,69.76A12.75,12.75,0,1,1,49.5,52l16.63-6.93a12.26,12.26,0,0,1-.16-2A12.75,12.75,0,0,1,78.72,30.33h0a12.76,12.76,0,1,1-8.18,22.54L53.62,59.93a11.76,11.76,0,0,1,.09,1.45l17.61,8.11a12.68,12.68,0,1,1-5,7.48ZM99.73,9.34H23.15a13.76,13.76,0,0,0-9.75,4l0,0a13.76,13.76,0,0,0-4,9.75V99.73a13.76,13.76,0,0,0,4,9.75l0,0a13.76,13.76,0,0,0,9.75,4H99.73a13.76,13.76,0,0,0,9.75-4l0,0a13.76,13.76,0,0,0,4-9.75V23.15a13.76,13.76,0,0,0-4-9.75l0,0a13.76,13.76,0,0,0-9.75-4Z"/></symbol><symbol id="shopping-cart-checkout" viewBox="0 -960 960 960"><path d="M480-569.33 433.33-616l70.34-70.67h-177v-66.66h177L433-824l47-46.67L630.67-720 480-569.33ZM286.53-80q-30.86 0-52.7-21.97Q212-123.95 212-154.81q0-30.86 21.98-52.69 21.97-21.83 52.83-21.83t52.69 21.97q21.83 21.98 21.83 52.84 0 30.85-21.97 52.69Q317.38-80 286.53-80Zm402.66 0q-30.86 0-52.69-21.97-21.83-21.98-21.83-52.84 0-30.86 21.97-52.69 21.98-21.83 52.84-21.83 30.85 0 52.69 21.97Q764-185.38 764-154.52q0 30.85-21.97 52.69Q720.05-80 689.19-80ZM54.67-813.33V-880h121l170 362.67H630.8l158.87-280h75L698-489.33q-11 19.33-28.87 30.66-17.88 11.34-39.13 11.34H328.67l-52 96H764v66.66H282.67q-40.11 0-61.06-33-20.94-33-2.28-67L280-496 133.33-813.33H54.67Z"/></symbol><symbol id="shopping-cart" viewBox="0 -960 960 960"><path d="M280-80q-33 0-56.5-23.5T200-160q0-33 23.5-56.5T280-240q33 0 56.5 23.5T360-160q0 33-23.5 56.5T280-80Zm400 0q-33 0-56.5-23.5T600-160q0-33 23.5-56.5T680-240q33 0 56.5 23.5T760-160q0 33-23.5 56.5T680-80ZM246-720l96 200h280l110-200H246Zm-38-80h590q23 0 35 20.5t1 41.5L692-482q-11 20-29.5 31T622-440H324l-44 80h480v80H280q-45 0-68-39.5t-2-78.5l54-98-144-304H40v-80h130l38 80Zm134 280h280-280Z"/></symbol><symbol id="star" viewBox="0 -960 960 960"><path d="m354-287 126-76 126 77-33-144 111-96-146-13-58-136-58 135-146 13 111 97-33 143ZM233-120l65-281L80-590l288-25 112-265 112 265 288 25-218 189 65 281-247-149-247 149Zm247-350Z"/></symbol><symbol id="store" viewBox="0 -960 960 960"><path d="M160-733.33V-800h641.33v66.67H160ZM163.33-160v-252h-46v-66.67L160-680h640.67l42.66 201.33V-412h-46v252h-66.66v-252H551.33v252h-388ZM230-226.67h254.67V-412H230v185.33Zm-46-252h592.67H184Zm0 0h592.67L748-613.33H212.67L184-478.67Z"/></symbol><symbol id="swap-horiz" viewBox="0 -960 960 960"><path d="M280-160 80-360l200-200 56 57-103 103h287v80H233l103 103-56 57Zm400-240-56-57 103-103H440v-80h287L624-743l56-57 200 200-200 200Z"/></symbol><symbol id="swap-vert" viewBox="0 -960 960 960"><path d="M320-440v-287L217-624l-57-56 200-200 200 200-57 56-103-103v287h-80ZM600-80 400-280l57-56 103 103v-287h80v287l103-103 57 56L600-80Z"/></symbol><symbol id="tune" viewBox="0 -960 960 960"><path d="M440-120v-240h80v80h320v80H520v80h-80Zm-320-80v-80h240v80H120Zm160-160v-80H120v-80h160v-80h80v240h-80Zm160-80v-80h400v80H440Zm160-160v-240h80v80h160v80H680v80h-80Zm-480-80v-80h400v80H120Z"/></symbol><symbol id="video-file" viewBox="0 -960 960 960"><path d="M360-240h160q17 0 28.5-11.5T560-280v-40l80 42v-164l-80 42v-40q0-17-11.5-28.5T520-480H360q-17 0-28.5 11.5T320-440v160q0 17 11.5 28.5T360-240ZM240-80q-33 0-56.5-23.5T160-160v-640q0-33 23.5-56.5T240-880h320l240 240v480q0 33-23.5 56.5T720-80H240Zm280-520v-200H240v640h480v-440H520ZM240-800v200-200 640-640Z"/></symbol><symbol id="visibility-off" viewBox="0 -960 960 960"><path d="m644-428-58-58q9-47-27-88t-93-32l-58-58q17-8 34.5-12t37.5-4q75 0 127.5 52.5T660-500q0 20-4 37.5T644-428Zm128 126-58-56q38-29 67.5-63.5T832-500q-50-101-143.5-160.5T480-720q-29 0-57 4t-55 12l-62-62q41-17 84-25.5t90-8.5q151 0 269 83.5T920-500q-23 59-60.5 109.5T772-302Zm20 246L624-222q-35 11-70.5 16.5T480-200q-151 0-269-83.5T40-500q21-53 53-98.5t73-81.5L56-792l56-56 736 736-56 56ZM222-624q-29 26-53 57t-41 67q50 101 143.5 160.5T480-280q20 0 39-2.5t39-5.5l-36-38q-11 3-21 4.5t-21 1.5q-75 0-127.5-52.5T300-500q0-11 1.5-21t4.5-21l-84-82Zm319 93Zm-151 75Z"/></symbol><symbol id="visibility" viewBox="0 -960 960 960"><path d="M480-320q75 0 127.5-52.5T660-500q0-75-52.5-127.5T480-680q-75 0-127.5 52.5T300-500q0 75 52.5 127.5T480-320Zm0-72q-45 0-76.5-31.5T372-500q0-45 31.5-76.5T480-608q45 0 76.5 31.5T588-500q0 45-31.5 76.5T480-392Zm0 192q-146 0-266-81.5T40-500q54-137 174-218.5T480-800q146 0 266 81.5T920-500q-54 137-174 218.5T480-200Zm0-300Zm0 220q113 0 207.5-59.5T832-500q-50-101-144.5-160.5T480-720q-113 0-207.5 59.5T128-500q50 101 144.5 160.5T480-280Z"/></symbol><symbol id="whatsapp" viewBox="0 0 512 512"><title>wa</title><path class="cls-1" d="M512,382.07c0,2.8-.09,8.88-.26,13.58-.41,11.49-1.32,26.32-2.7,33.07a109.76,109.76,0,0,1-9.27,27.71,98.45,98.45,0,0,1-43.43,43.39,110.21,110.21,0,0,1-27.87,9.28c-6.69,1.35-21.41,2.24-32.82,2.65-4.71.17-10.79.25-13.58.25l-252.1,0c-2.8,0-8.88-.09-13.58-.26-11.49-.41-26.32-1.32-33.07-2.69a110.37,110.37,0,0,1-27.72-9.28A98.5,98.5,0,0,1,12.18,456.3,110.21,110.21,0,0,1,2.9,428.43C1.55,421.74.66,407,.25,395.61.08,390.91,0,384.82,0,382l0-252.1c0-2.8.09-8.88.25-13.58C.71,104.86,1.62,90,3,83.28a110.37,110.37,0,0,1,9.27-27.72A98.59,98.59,0,0,1,55.7,12.18,110.21,110.21,0,0,1,83.57,2.9C90.26,1.55,105,.66,116.39.25,121.09.08,127.18,0,130,0l252.1,0c2.8,0,8.88.09,13.58.25C407.14.71,422,1.62,428.72,3a110.37,110.37,0,0,1,27.72,9.27A98.59,98.59,0,0,1,499.82,55.7a110.21,110.21,0,0,1,9.28,27.87c1.35,6.69,2.24,21.41,2.65,32.82.17,4.7.25,10.79.25,13.58Z" transform="translate(0 0)"/><path class="cls-2" d="M379.56,131.67A172.4,172.4,0,0,0,256.67,80.73C161,80.73,83.05,158.64,83.05,254.42a173.47,173.47,0,0,0,23.2,86.82l-24.65,90,92.08-24.17a173.55,173.55,0,0,0,83,21.17h.07c95.73,0,173.69-77.91,173.69-173.69A172.73,172.73,0,0,0,379.53,131.7l0,0ZM256.72,399a144.17,144.17,0,0,1-73.52-20.14l-5.29-3.15L123.27,390l14.59-53.27-3.42-5.47a143.29,143.29,0,0,1-22.11-76.81C112.33,174.81,177.1,110,256.8,110A144.34,144.34,0,0,1,401.12,254.48c-.07,79.67-64.83,144.46-144.41,144.46v0ZM335.87,290.8c-4.32-2.2-25.68-12.67-29.65-14.12s-6.85-2.19-9.8,2.2-11.22,14.11-13.76,17-5.06,3.29-9.37,1.09-18.35-6.77-34.92-21.56c-12.88-11.5-21.61-25.74-24.15-30s-.29-6.71,1.92-8.83c2-1.93,4.32-5.06,6.51-7.6s2.88-4.32,4.32-7.26.74-5.42-.35-7.6-9.8-23.55-13.34-32.25c-3.49-8.51-7.12-7.32-9.79-7.47s-5.42-.13-8.29-.13a16,16,0,0,0-11.57,5.41c-4,4.32-15.2,14.86-15.2,36.22s15.54,42,17.72,44.91,30.61,46.76,74.14,65.54c10.34,4.44,18.42,7.11,24.72,9.18a60,60,0,0,0,27.32,1.71c8.35-1.23,25.68-10.49,29.31-20.62s3.63-18.83,2.55-20.62-3.91-3-8.29-5.22l0,0Z" transform="translate(0 0)"/></symbol><symbol id="widgets" viewBox="0 -960 960 960"><path d="M674.67-457.33 457.33-674.67 674.67-892 892-674.67 674.67-457.33ZM120-532v-307.33h307.33V-532H120Zm412 412v-307.33h307.33V-120H532Zm-412 0v-307.33h307.33V-120H120Zm66.67-478.67h174v-174h-174v174Zm490.33 50 123.67-123.66L677-796 553.33-672.33 677-548.67Zm-78.33 362h174v-174h-174v174Zm-412 0h174v-174h-174v174Zm174-412Zm192.66-73.66ZM360.67-360.67Zm238 0Z"/></symbol><symbol id="x" viewBox="0 0 512 509.64"><rect width="512" height="509.64" rx="115.61" ry="115.61"/><path fill="#fff" fill-rule="nonzero" d="M323.74 148.35h36.12l-78.91 90.2 92.83 122.73h-72.69l-56.93-74.43-65.15 74.43h-36.14l84.4-96.47-89.05-116.46h74.53l51.46 68.04 59.53-68.04zm-12.68 191.31h20.02l-129.2-170.82H180.4l130.66 170.82z"/></symbol><symbol id="youtube" viewBox="0 0 333333 333333"><path d="M329930 100020s-3254-22976-13269-33065c-12691-13269-26901-13354-33397-14124-46609-3396-116614-3396-116614-3396h-122s-69973 0-116608 3396c-6522 793-20712 848-33397 14124C6501 77044 3316 100020 3316 100020S-1 126982-1 154001v25265c0 26962 3315 53979 3315 53979s3254 22976 13207 33082c12685 13269 29356 12838 36798 14254 26685 2547 113354 3315 113354 3315s70065-124 116675-3457c6522-770 20706-848 33397-14124 10021-10089 13269-33090 13269-33090s3319-26962 3319-53979v-25263c-67-26962-3384-53979-3384-53979l-18 18-2-2zM132123 209917v-93681l90046 46997-90046 46684z" fill="red"/></symbol><symbol id="zoom-in" viewBox="0 -960 960 960"><path d="M784-120 532-372q-30 24-69 38t-83 14q-109 0-184.5-75.5T120-580q0-109 75.5-184.5T380-840q109 0 184.5 75.5T640-580q0 44-14 83t-38 69l252 252-56 56ZM380-400q75 0 127.5-52.5T560-580q0-75-52.5-127.5T380-760q-75 0-127.5 52.5T200-580q0 75 52.5 127.5T380-400Zm-40-60v-80h-80v-80h80v-80h80v80h80v80h-80v80h-80Z"/></symbol><symbol id="zoom-out" viewBox="0 -960 960 960"><path d="M784-120 532-372q-30 24-69 38t-83 14q-109 0-184.5-75.5T120-580q0-109 75.5-184.5T380-840q109 0 184.5 75.5T640-580q0 44-14 83t-38 69l252 252-56 56ZM380-400q75 0 127.5-52.5T560-580q0-75-52.5-127.5T380-760q-75 0-127.5 52.5T200-580q0 75 52.5 127.5T380-400ZM280-540v-80h200v80H280Z"/></symbol></svg>